<?xml version="1.0" standalone="no"?>
<!DOCTYPE svg PUBLIC "-//W3C//DTD SVG 20010904//EN"
 "http://www.w3.org/TR/2001/REC-SVG-20010904/DTD/svg10.dtd">
<svg version="1.0" xmlns="http://www.w3.org/2000/svg"
 width="300.000000pt" height="271.000000pt" viewBox="0 0 300.000000 271.000000"
 preserveAspectRatio="xMidYMid meet">
<metadata>
Created by potrace 1.10, written by Peter Selinger 2001-2011
</metadata>
<g transform="translate(0.000000,271.000000) scale(0.100000,-0.100000)"
fill="#00ff00" stroke="none">
<path d="M1742 2423 c-22 -4 -45 -41 -58 -92 -2 -9 -20 -63 -40 -121 -19 -58
-37 -112 -39 -120 -3 -8 -113 -339 -245 -734 -160 -476 -240 -730 -238 -750 4
-30 4 -29 16 14 7 25 39 128 72 230 33 102 60 191 60 198 0 7 4 11 8 8 5 -3
14 18 21 47 7 29 39 131 72 228 32 97 59 184 59 193 0 10 4 15 8 12 5 -3 14
18 21 47 20 82 122 382 131 385 4 2 6 12 3 22 -3 11 -1 20 5 20 6 0 16 25 23
56 23 103 97 309 109 306 7 -2 10 3 7 10 -3 10 17 13 92 12 l96 -1 -85 7 -85
6 93 2 c69 2 91 -1 90 -10 -2 -7 3 -12 10 -10 16 3 15 -43 -3 -93 -8 -22 -15
-48 -15 -58 0 -10 -4 -16 -9 -13 -5 3 -14 -16 -21 -42 -15 -58 -68 -220 -80
-247 -5 -11 -17 -44 -26 -74 -14 -44 -19 -51 -26 -35 -4 11 -5 3 -1 -20 4 -28
3 -37 -6 -32 -6 4 -11 1 -11 -7 0 -16 -74 -249 -90 -282 -5 -11 -11 -29 -13
-40 -2 -11 -9 -19 -16 -17 -7 1 -9 -2 -6 -8 4 -6 4 -23 0 -38 -5 -21 -8 -23
-16 -11 -8 10 -9 8 -4 -9 4 -13 2 -29 -4 -36 -6 -6 -17 -37 -25 -67 -17 -62
-69 -219 -77 -234 -3 -5 -14 -36 -24 -67 -13 -39 -22 -54 -28 -45 -6 8 -7 5
-2 -8 3 -10 -1 -33 -9 -50 -8 -16 -30 -79 -49 -140 -57 -182 -89 -265 -99
-259 -5 3 -6 -5 -2 -20 3 -15 2 -26 -4 -26 -8 0 -13 -11 -27 -62 -2 -5 -3 -15
-4 -23 0 -8 -7 -12 -15 -9 -8 3 -17 1 -21 -5 -3 -6 0 -11 7 -11 9 0 9 -3 -2
-10 -8 -5 -70 -10 -137 -10 -111 0 -123 2 -123 18 0 13 -2 14 -9 4 -9 -14 -52
94 -112 283 -18 55 -35 102 -39 105 -12 10 -31 90 -24 102 4 6 3 8 -3 5 -6 -4
-18 15 -27 46 -9 28 -21 61 -26 72 -13 29 -40 111 -56 175 -8 30 -18 57 -23
60 -4 3 -26 61 -50 130 -23 69 -46 134 -50 145 -27 64 -31 78 -31 100 0 13 -4
27 -10 30 -5 3 -10 15 -10 26 0 10 -5 19 -11 19 -7 0 -9 10 -7 25 3 13 2 22
-2 20 -4 -3 -29 57 -54 133 -26 75 -51 146 -56 157 -5 11 -11 33 -15 50 -4 16
-15 47 -25 70 -23 51 -90 246 -90 262 0 7 7 13 16 13 10 0 14 6 10 15 -5 13
10 15 99 15 79 0 104 -3 102 -12 -1 -7 6 -12 15 -12 10 1 15 -3 12 -8 -4 -6
-1 -13 5 -17 12 -8 101 -258 127 -357 8 -32 18 -61 23 -64 8 -6 136 -387 146
-437 4 -18 11 -33 17 -33 6 0 8 -9 5 -20 -3 -11 -2 -20 3 -20 4 0 17 -28 29
-62 26 -77 85 -258 102 -315 7 -24 17 -43 22 -43 5 0 7 -14 3 -32 -4 -20 -3
-28 3 -20 6 10 10 6 15 -15 18 -72 112 -320 126 -328 4 -2 -4 26 -17 63 -13
37 -26 74 -28 82 -2 8 -20 62 -40 120 -20 58 -38 110 -39 115 -1 6 -10 27 -19
49 -9 21 -17 42 -17 46 0 5 -21 68 -46 142 -25 73 -63 185 -84 248 -21 63 -66
194 -100 290 -69 198 -120 348 -125 370 -2 8 -9 29 -16 45 -7 17 -13 32 -14
35 -5 21 -30 94 -46 136 -26 65 -45 74 -164 74 -169 0 -171 -4 -99 -210 3 -8
5 -16 5 -17 0 -2 8 -23 19 -48 11 -25 20 -49 21 -53 1 -4 6 -18 11 -32 5 -14
11 -32 13 -40 2 -8 20 -60 40 -115 20 -55 38 -107 40 -115 2 -8 21 -60 40
-115 20 -55 40 -111 45 -125 4 -14 29 -83 55 -155 26 -71 50 -141 55 -155 5
-14 25 -70 45 -125 20 -55 38 -107 40 -115 2 -8 20 -60 40 -115 20 -55 38
-107 40 -115 2 -8 8 -26 13 -40 5 -14 10 -28 11 -32 1 -4 10 -28 21 -53 11
-25 20 -49 21 -53 1 -4 5 -17 10 -30 5 -13 9 -26 9 -30 0 -6 53 -153 74 -204
l10 -27 141 0 c115 1 145 4 163 18 18 13 60 107 77 171 2 8 11 33 19 55 41
110 118 332 121 347 2 9 9 26 15 38 6 12 13 29 15 38 2 9 25 76 50 147 26 72
50 144 54 160 4 17 13 39 19 50 6 11 21 49 33 85 12 36 37 108 56 160 18 52
35 103 38 112 2 9 8 25 14 36 6 11 7 22 4 26 -3 3 0 6 7 6 7 0 11 3 7 6 -3 3
6 36 20 72 14 37 26 74 28 82 2 8 9 29 16 45 7 17 13 32 14 35 8 27 37 113 49
145 88 236 105 316 70 329 -17 7 -186 6 -222 -1z"/>
<path d="M2550 2380 c-19 -4 -120 -10 -223 -12 -236 -4 -227 2 -227 -157 0
-141 -11 -134 240 -142 107 -4 210 -10 227 -14 51 -11 101 3 143 41 133 120
17 327 -160 284z m104 -34 c78 -32 110 -131 66 -203 -29 -49 -71 -66 -139 -58
-31 4 -145 9 -253 11 l-198 5 0 119 0 120 198 1 c108 1 208 5 222 9 39 12 68
11 104 -4z"/>
<path d="M2595 1460 c-11 -5 -174 -9 -361 -9 -418 -1 -386 10 -391 -143 -3
-92 -1 -109 16 -129 l19 -24 359 -7 c197 -3 381 -9 408 -13 147 -18 240 162
141 273 -46 52 -135 76 -191 52z m168 -69 c33 -36 37 -46 37 -91 0 -45 -4 -55
-39 -92 -37 -40 -40 -42 -97 -40 -33 1 -224 5 -426 7 l-368 6 0 119 0 120 353
1 c193 1 363 5 377 10 14 4 48 6 75 4 43 -4 55 -10 88 -44z"/>
<path d="M2525 585 c-30 -9 -159 -13 -514 -14 -426 -1 -476 -3 -493 -18 -26
-23 -27 -233 -1 -254 13 -11 114 -15 512 -21 273 -3 521 -9 551 -13 68 -7 112
13 152 71 58 83 22 200 -75 245 -48 21 -75 22 -132 4z m118 -29 c42 -17 85
-68 92 -110 20 -102 -102 -192 -204 -150 -27 11 -126 14 -517 14 l-484 0 0
118 0 117 483 -3 c411 -2 488 -1 517 12 44 19 72 20 113 2z"/>
</g>
</svg>
