<?xml version="1.0" encoding="utf-8"?>
<!-- Generator: Adobe Illustrator 16.0.0, SVG Export Plug-In . SVG Version: 6.00 Build 0)  -->
<!DOCTYPE svg PUBLIC "-//W3C//DTD SVG 1.0//EN" "http://www.w3.org/TR/2001/REC-SVG-20010904/DTD/svg10.dtd">
<svg version="1.0" id="Layer_1" xmlns="http://www.w3.org/2000/svg" xmlns:xlink="http://www.w3.org/1999/xlink" x="0px" y="0px"
	 width="800px" height="800px" viewBox="0 0 800 800" enable-background="new 0 0 800 800" xml:space="preserve">
<g>
	<polyline fill="#D3110F" points="215.843,516.181 302.197,281.965 383.947,281.965 424.359,391.27 467.521,281.965 
		551.124,281.965 463.843,516.181 384.859,516.181 344.448,409.644 304.021,516.181 	"/>
	<path fill="#D3110F" d="M693.484,281.965H581.43l-86.339,234.216h81.749l16.537-40.395h87.251l16.535,40.395h81.749
		 M608.983,424.325l27.569-69.806l28.467,69.806H608.983z"/>
	<path fill="#D3110F" d="M191.04,430.753c0.912,0,24.803,0.928,24.803,0c0.927,0-31.232,85.428-31.232,85.428
		s-41.338,0.928-46.84,0.928c-51.445,0-82.677-22.964-100.14-50.518c-17.447-26.643-16.535-58.803-16.535-58.803
		c0-35.821,20.212-72.554,47.781-95.519c25.715-20.198,45.001-28.48,90.93-29.393c2.751-0.912,113.894-0.912,113.894-0.912
		l-31.216,82.662h-43.178c-2.751,0-40.427,0-45.001,0c-3.678,0.912-30.319,5.516-34.924,33.981
		c-3.663,21.141,10.106,31.248,22.963,31.248C171.753,430.753,191.04,430.753,191.04,430.753"/>
	<rect x="21.096" y="282.877" fill="none" width="254.46" height="235.158"/>
</g>
</svg>
